<?xml version="1.0" standalone="no"?>
<!DOCTYPE svg PUBLIC "-//W3C//DTD SVG 20010904//EN"
 "http://www.w3.org/TR/2001/REC-SVG-20010904/DTD/svg10.dtd">
<svg version="1.0" xmlns="http://www.w3.org/2000/svg"
 width="124.000000pt" height="124.000000pt" viewBox="0 0 124.000000 124.000000"
 preserveAspectRatio="xMidYMid meet">

<g transform="translate(0.000000,124.000000) scale(0.100000,-0.100000)"
fill="#000000" stroke="none">
<path d="M555 1184 c-16 -8 -120 -84 -230 -167 l-200 -152 0 -45 0 -45 500 0
500 0 3 36 c2 23 -3 43 -15 56 -10 12 -112 91 -227 177 -199 149 -211 156
-255 156 -25 0 -59 -7 -76 -16z"/>
<path d="M130 675 c-6 -7 -10 -37 -8 -67 l3 -53 500 0 500 0 3 54 c2 30 -1 58
-6 63 -5 5 -224 11 -495 13 -402 3 -487 2 -497 -10z"/>
</g>
</svg>
